# AST/ASF file generated using VICON BodyLanguage
# -----------------------------------------------
:version 1.10
:name VICON
:units
  mass 1.0
  length 0.45
  angle deg
:documentation
   .ast/.asf automatically generated from VICON data using
   VICON BodyBuilder and BodyLanguage model FoxedUp or BRILLIANT.MOD
:root
   order TX TY TZ RX RY RZ
   axis XYZ
   position 0 0 0  
   orientation 0 0 0 
:bonedata
  begin
     id 1 
     name lhipjoint
     direction 0.64773 -0.699417 0.302095 
     length 2.48597 
     axis 0 0 0  XYZ
  end
  begin
     id 2 
     name lfemur
     direction 0.34202 -0.939693 0  
     length 6.71947  
     axis 0 0 20  XYZ
    dof rx ry rz
    limits (-160.0 20.0)
           (-70.0 70.0)
           (-60.0 70.0)
  end
  begin
     id 3 
     name ltibia
     direction 0.34202 -0.939693 0   
     length 8.08777   
     axis 0 0 20   XYZ
    dof rx
    limits (-10.0 170.0)
  end
  begin
     id 4 
     name lfoot
     direction 0.0808503 -0.222134 0.971658   
     length 2.08264   
     axis -90 7.62852e-016 20   XYZ
    dof rx rz
    limits (-45.0 90.0)
           (-70.0 20.0)
  end
  begin
     id 5 
     name ltoes
     direction 1.53502e-011 -4.22007e-011 1   
     length 1.04662   
     axis -90 7.62852e-016 20   XYZ
    dof rx
    limits (-90.0 20.0)
  end
  begin
     id 6 
     name rhipjoint
     direction -0.610924 -0.726792 0.313919   
     length 2.39233  
     axis 0 0 0  XYZ 
  end
  begin
     id 7 
     name rfemur
     direction -0.34202 -0.939693 0   
     length 6.96955   
     axis 0 0 -20   XYZ
    dof rx ry rz
    limits (-160.0 20.0)
           (-70.0 70.0)
           (-70.0 60.0)
  end
  begin
     id 8 
     name rtibia
     direction -0.34202 -0.939693 0   
     length 8.19584   
     axis 0 0 -20   XYZ
    dof rx
    limits (-10.0 170.0)
 end
 begin
     id 9 
     name rfoot
     direction -0.077777 -0.213691 0.9738   
     length 2.07539  
     axis -90 -7.62852e-016 -20   XYZ
    dof rx rz
    limits (-45.0 90.0)
           (-20.0 70.0)
  end
  begin
     id 10 
     name rtoes
     direction -1.53558e-011 -4.22006e-011 1   
     length 1.04381   
     axis -90 -7.62852e-016 -20   XYZ
    dof rx
    limits (-90.0 20.0)
  end
  begin
     id 11 
     name lowerback
     direction -0.00971646 0.996074 0.0879841   
     length 1.67643   
     axis 0 0 0   XYZ
    dof rx ry rz
    limits (-20.0 45.0)
           (-30.0 30.0)
           (-30.0 30.0)
  end
  begin
     id 12 
     name upperback
     direction 0.0127391 0.991676 0.128127   
     length 1.63741   
     axis 0 0 0   XYZ
    dof rx ry rz
    limits (-20.0 45.0)
           (-30.0 30.0)
           (-30.0 30.0)
  end
  begin
     id 13 
     name thorax
     direction 0.0167583 0.996049 0.0872067   
     length 1.65931   
     axis 0 0 0   XYZ
    dof rx ry rz
    limits (-20.0 45.0)
           (-30.0 30.0)
           (-30.0 30.0)
  end
  begin
     id 14 
     name lowerneck
     direction -0.0317829 0.998312 0.0486079   
     length 1.79021   
     axis 0 0 0   XYZ
    dof rx ry rz
    limits (-20.0 45.0)
           (-30.0 30.0)
           (-30.0 30.0)
  end
  begin
     id 15 
     name upperneck
     direction 0.0896851 0.972452 -0.215159   
     length 1.78797   
     axis 0 0 0   XYZ
    dof rx ry rz
    limits (-20.0 45.0)
           (-30.0 30.0)
           (-30.0 30.0)
  end
  begin
     id 16
     name head
     direction 0.0310949 0.996503 -0.0775582  
     length 1.81549  
     axis 0 0 0   XYZ
    dof rx ry rz
    limits (-20.0 45.0)
           (-30.0 30.0)
           (-30.0 30.0)
  end
  begin
     id 17 
     name lclavicle
     direction 0.853638 0.502051 -0.138733  
     length 3.31627  
     axis 0 0 0   XYZ
    dof ry rz
    limits (-20.0 10.0)
           (0.0 20.0)
  end
  begin
     id 18 
     name lhumerus
     direction 1 -4.48962e-011 -1.41788e-018   
     length 5.54893   
     axis 180 -30 -90   XYZ
    dof rx ry rz
    limits (-60.0 90.0)
           (-90.0 90.0)
           (-90.0 90.0)
  end
  begin
     id 19
     name lradius
     direction 1 -4.48962e-011 -4.95754e-027   
     length 3.02898   
     axis 180 -30 -90   XYZ
    dof rx
    limits (-10.0 170.0)
  end
  begin
     id 20
     name lwrist
     direction 1 -4.48952e-011 -1.03764e-026   
     length 1.51449   
     axis 9.09556e-015 90 90   XYZ
    dof ry
    limits (-180.0 0.0)
 end
  begin
     id 21 
     name lhand
     direction 1 -4.4902e-011 -2.07528e-026   
     length 0.640951   
     axis 1.3242e-014 90 90   XYZ
    dof rx rz
    limits (-90.0 90.0)
           (-45.0 45.0)
  end
  begin
     id 22 
     name lfingers
     direction 1 -4.49014e-011 -4.15056e-026   
     length 0.516751   
     axis 2.64841e-014 90 90   XYZ
    dof rx
    limits (0.0 90.0)
  end
  begin
     id 23
     name lthumb
     direction 0.707107 -6.35008e-011 0.707107   
     length 0.741954   
     axis -90 45 2.85299e-015   XYZ
    dof rx rz
    limits (-45.0 45.0)
           (-45.0 45.0)
  end
  begin
     id 24 
     name rclavicle
     direction -0.888531 0.455324 -0.0565039   
     length 3.20126  
     axis 0 0 0   XYZ 
    dof ry rz
    limits (-10.0 20.0)
           (-20.0 0.0)
  end
  begin
     id 25 
     name rhumerus
     direction -1 -4.48946e-011 -8.98298e-028  
     length 5.3519   
     axis 180 30 90   XYZ
    dof rx ry rz
    limits (-90.0 60.0)
           (-90.0 90.0)
           (-90.0 90.0)
  end
  begin
     id 26 
     name rradius
     direction -1 -4.4899e-011 -3.18779e-027   
     length 3.02531   
     axis 180 30 90   XYZ
    dof rx
    limits (-10.0 170.0)
  end
  begin
     id 27 
     name rwrist
     direction -1 -4.4897e-011 -1.03764e-026   
     length 1.51266   
     axis 9.09556e-015 -90 -90   XYZ
    dof ry
    limits (-180.0 0.0)
  end
  begin
     id 28
     name rhand
     direction -1 -4.48941e-011 -2.07528e-026   
     length 0.78389   
     axis 1.3242e-014 -90 -90   XYZ
    dof rx rz
    limits (-90.0 90.0)
           (-45.0 45.0)
  end
  begin
     id 29
     name rfingers
     direction -1 -4.49012e-011 -4.15056e-026   
     length 0.631992   
     axis 2.64841e-014 -90 -90   XYZ
    dof rx
    limits (0.0 90.0)
  end
  begin
     id 30
     name rthumb
     direction -0.707107 -6.3496e-011 0.707107   
     length 0.907418   
     axis -90 -45 -2.85299e-015   XYZ
    dof rx rz
    limits (-45.0 45.0)
           (-45.0 45.0)
  end
:hierarchy
  begin
    root lhipjoint rhipjoint lowerback
    lhipjoint lfemur
    lfemur ltibia
    ltibia lfoot
    lfoot ltoes
    rhipjoint rfemur
    rfemur rtibia
    rtibia rfoot
    rfoot rtoes
    lowerback upperback
    upperback thorax
    thorax lowerneck lclavicle rclavicle
    lowerneck upperneck
    upperneck head
    lclavicle lhumerus
    lhumerus lradius
    lradius lwrist
    lwrist lhand lthumb
    lhand lfingers
    rclavicle rhumerus
    rhumerus rradius
    rradius rwrist
    rwrist rhand rthumb
    rhand rfingers
  end

#!OML:ASF E:\Style3\Style3.ASF
:FULLY-SPECIFIED
:DEGREES
2204
root 0.696443 17.8172 0.780788 45.2634 91.272 28.9084
lowerback -12.5601 -2.27071 0.408596
upperback -12.9445 -2.09205 1.87401
thorax -6.66142 -0.614365 1.57289
lowerneck -11.3186 -2.93349 -5.37851
upperneck 32.2679 -3.87652 5.72397
head 12.8406 -1.2558 2.69803
rclavicle 8.74653e-015 1.47101e-014
rhumerus 57.5363 10.0827 -42.1509
rradius 61.9905
rwrist -62.1899
rhand -26.8219 -7.46939
rfingers 7.12502
rthumb -0.24811 -37.449
lclavicle 8.74653e-015 1.47101e-014
lhumerus 52.1898 -7.48507 39.8425
lradius 63.635
lwrist 80.3412
lhand -26.1324 54.7708
lfingers 7.12502
lthumb 0.417872 84.7501
rfemur -14.2965 11.8685 18.8881
rtibia 14.598
rfoot -15.7284 -21.8214
rtoes -13.4055
lfemur 0 0 0
ltibia 0
lfoot 0 0
ltoes 0
2205
root 0.69685 17.817 0.782145 46.3039 91.3046 29.9615
lowerback -12.5266 -2.29616 0.425363
upperback -12.9568 -2.1241 1.91914
thorax -6.69194 -0.629048 1.61038
lowerneck -11.2647 -2.92428 -5.43048
upperneck 32.2671 -3.85431 5.73506
head 12.8286 -1.25118 2.71501
rclavicle -5.36719e-015 1.51076e-014
rhumerus 57.5664 10.1608 -42.069
rradius 61.989
rwrist -62.1792
rhand -26.9017 -7.3715
rfingers 7.12502
rthumb -0.325138 -37.351
lclavicle -5.36719e-015 1.51076e-014
lhumerus 52.075 -7.45249 39.9062
lradius 63.7146
lwrist 80.3221
lhand -26.0002 54.8593
lfingers 7.12502
lthumb 0.545588 84.8384
rfemur -14.2778 11.8832 18.9382
rtibia 14.5977
rfoot -15.7103 -21.8456
rtoes -13.3041
lfemur 0 0 0
ltibia 0
lfoot 0 0
ltoes 0
2206
root 0.69659 17.8169 0.78333 46.0456 91.3032 29.7115
lowerback -12.4632 -2.29806 0.413736
upperback -12.9851 -2.12346 1.91224
thorax -6.75803 -0.627032 1.61204
lowerneck -11.2404 -2.93239 -5.42769
upperneck 32.2937 -3.8687 5.74216
head 12.8358 -1.25535 2.71637
rclavicle 7.95139e-016 2.78299e-015
rhumerus 57.4837 10.1991 -41.971
rradius 62.0467
rwrist -62.177
rhand -26.9517 -7.39132
rfingers 7.12502
rthumb -0.373423 -37.3707
lclavicle 7.95139e-016 2.78299e-015
lhumerus 52.0085 -7.50096 39.9443
lradius 63.8022
lwrist 80.437
lhand -26.1892 54.7858
lfingers 7.12502
lthumb 0.363057 84.7652
rfemur -14.2686 11.8819 18.9346
rtibia 14.5937
rfoot -15.763 -21.8232
rtoes -13.1921
lfemur 0 0 0
ltibia 0
lfoot 0 0
ltoes 0
2207
root 0.696359 17.8171 0.784371 45.3296 91.2883 28.9759
lowerback -12.4714 -2.3233 0.369979
upperback -12.9848 -2.15426 1.91589
thorax -6.75045 -0.638983 1.63806
lowerneck -11.2581 -2.92175 -5.42925
upperneck 32.3006 -3.87082 5.79877
head 12.8438 -1.24895 2.73875
rclavicle 1.07344e-014 -1.03368e-014
rhumerus 57.5108 10.2166 -41.9798
rradius 62.0282
rwrist -62.1477
rhand -26.9672 -7.40701
rfingers 7.12502
rthumb -0.388444 -37.3864
lclavicle 1.07344e-014 -1.03368e-014
lhumerus 51.9431 -7.4745 39.9322
lradius 63.8619
lwrist 80.474
lhand -26.178 54.7997
lfingers 7.12502
lthumb 0.373834 84.7791
rfemur -14.2882 11.8085 18.9163
rtibia 14.5818
rfoot -15.7391 -21.7571
rtoes -13.3822
lfemur 0 0 0
ltibia 0
lfoot 0 0
ltoes 0
2208
root 0.697573 17.8177 0.785824 46.4555 91.2755 30.0897
lowerback -12.5205 -2.30777 0.384762
upperback -12.9518 -2.1389 1.90091
thorax -6.68806 -0.634789 1.61286
lowerneck -11.3023 -2.93402 -5.4218
upperneck 32.2714 -3.9033 5.83583
head 12.8441 -1.25854 2.74603
rclavicle 2.17669e-014 -5.96354e-015
rhumerus 57.4938 10.1555 -41.9926
rradius 62.0514
rwrist -62.1423
rhand -27.0076 -7.33068
rfingers 7.12502
rthumb -0.427432 -37.31
lclavicle 2.17669e-014 -5.96354e-015
lhumerus 51.9792 -7.44108 39.9826
lradius 63.8916
lwrist 80.4224
lhand -26.1375 54.947
lfingers 7.12502
lthumb 0.412924 84.9263
rfemur -14.2868 11.7535 18.9342
rtibia 14.5486
rfoot -15.6855 -21.6703
rtoes -13.4942
lfemur 0 0 0
ltibia 0
lfoot 0 0
ltoes 0
2209
root 0.697428 17.817 0.788589 47.8262 91.3043 31.4878
lowerback -12.5049 -2.31045 0.40696
upperback -12.9169 -2.14878 1.90154
thorax -6.65787 -0.643613 1.6003
lowerneck -11.3806 -2.94579 -5.4118
upperneck 32.2955 -3.92752 5.85138
head 12.873 -1.26545 2.74722
rclavicle -4.37326e-015 9.14409e-015
rhumerus 57.5077 10.124 -42.0151
rradius 62.0709
rwrist -62.0593
rhand -27.1127 -7.39278
rfingers 7.12502
rthumb -0.528949 -37.3719
lclavicle -4.37326e-015 9.14409e-015
lhumerus 52.0292 -7.37045 40.036
lradius 63.899
lwrist 80.4628
lhand -26.1797 54.9793
lfingers 7.12502
lthumb 0.372143 84.9587
rfemur -14.2383 11.8599 18.985
rtibia 14.5179
rfoot -15.7231 -21.7386
rtoes -13.2966
lfemur 0 0 0
ltibia 0
lfoot 0 0
ltoes 0
